# xmcd
#
# Track frame offsets:
#	150
#	38096
#	58973
#	87164
#	119221
#	151525
#	188185
#	218187
#	245103
#	277904
#	305224
#
# Disc length: 4552 seconds
#
# Revision: 1
# Processed by: cddbd v1.5.2PL0 Copyright (c) Steve Scherf et al.
# Submitted via: audiograbber 1.83.01
#
DISCID=a111c60b
DTITLE=Various Artist - Retro:Active 6
DYEAR=2007
DGENRE=Rock
TTITLE0=Erasure - Chains Of Love (Unfettered Mix)
TTITLE1=The Cure - Love Cats (Extended Version)
TTITLE2=Tears for Fears - Mothers Talk (Extended Version)
TTITLE3=Paul Hardcastle - 19 (Destruction Mix)
TTITLE4=New Order - Round and Round (The Club Mix)
TTITLE5=Peter Schilling - Major Tom (Coming Home) (Special Extended Version)
TTITLE6=Xymox - Obsession (Club Mix)
TTITLE7=Go West - We Close Our Eyes (Total Overhang Mix)
TTITLE8=Dead or Alive - My Heart Goes Bang (Get Me To The Doctor) (Extennded Re
TTITLE8=mix)
TTITLE9=Eight Seconds - Kiss You When It's Dangerous (Extended Mix)
TTITLE10=Thompson Twins - King For A Day (Extended Mix)
EXTD=
EXTT0=
EXTT1=
EXTT2=
EXTT3=
EXTT4=
EXTT5=
EXTT6=
EXTT7=
EXTT8=
EXTT9=
EXTT10=
PLAYORDER=
